<svg xmlns="http://www.w3.org/2000/svg" width="18" height="18" viewBox="0 0 18 18" role="img" aria-labelledby="title desc">
  <title id="title">Cadence menu bar icon</title>
  <desc id="desc">A simplified queue machine mark for the Cadence menu bar.</desc>
  <path fill="#000" fill-rule="evenodd" d="M4.7 2h8.6c1.7 0 3 1.3 3 3v4.45c0 .5-.4.9-.9.9h-2.1V8.75c0-.95-.75-1.7-1.7-1.7H6.4c-.95 0-1.7.75-1.7 1.7v1.6H2.6c-.5 0-.9-.4-.9-.9V5c0-1.7 1.3-3 3-3Zm2.35 2.2a.7.7 0 1 0 0 1.4h3.9a.7.7 0 1 0 0-1.4h-3.9ZM4.1 9.05c0-.8.65-1.45 1.45-1.45h6.9c.8 0 1.45.65 1.45 1.45V13h-2V9.85c0-.3-.25-.55-.55-.55h-4.7c-.3 0-.55.25-.55.55V13h-2V9.05Zm1.55 3.05h6.7c.85 0 1.5.65 1.5 1.5v.9c0 .85-.65 1.5-1.5 1.5h-6.7c-.85 0-1.5-.65-1.5-1.5v-.9c0-.85.65-1.5 1.5-1.5Z"/>
</svg>
